<svg xmlns="http://www.w3.org/2000/svg" viewBox="0 0 709.2 314.4"><defs><style>.cls-1{fill:#fff;}</style></defs><g id="Layer_2" data-name="Layer 2"><g id="Layer_1-2" data-name="Layer 1"><path class="cls-1" d="M82.5,63.6v-41c5.7-1.4,11.3-3.3,17-3.3a35.59,35.59,0,0,1,11.3,1.9l-2.4,9.9c-4.2-.9-9-1.9-13.7-.5V63.1l-12.2.5Z"/><path class="cls-1" d="M56.5,19.3c-12.3,0-21.2,9.4-21.2,22.6s9,22.6,21.2,22.6,21.2-9.4,21.2-22.6S68.8,19.3,56.5,19.3Zm0,34.9C50.8,54.2,48,50,48,41.9s3.3-12.3,8.5-12.3S65,33.8,65,41.9,61.7,54.2,56.5,54.2Z"/><path class="cls-1" d="M33,52.3a31.68,31.68,0,0,1-9.9,1.9c-7.1,0-10.8-3.3-10.8-12.3,0-8.5,4.2-12.3,10.8-12.3a20.84,20.84,0,0,1,8,1.4l2.8-9.4c-3.8-1.9-7.5-2.4-12.7-2.4C9.4,19.2,0,28.6,0,41.8S9,64.4,21.2,64.4A31,31,0,0,0,34.4,62Z"/><path class="cls-1" d="M133.8,54.2a30.48,30.48,0,0,0,11.8-2.4l1.9,9.9a45.59,45.59,0,0,1-15.1,2.8c-16,0-23.1-9.9-23.1-22.1s7.5-23.1,20.7-23.1,19.8,8.5,19.8,22.1v4.7H122.1C122.5,52.7,130.1,54.2,133.8,54.2ZM122.1,37.7h16c0-5.7-3.8-8.5-8-8.5S122.5,32,122.1,37.7Z"/><path class="cls-1" d="M180.5,6.1l.9-4.7C177.6.5,176.2,0,172.9,0c-10.4,0-15.6,6.1-15.6,16V63.1h5.2V25.4h12.7V21.2H162.9V17c0-5.1.9-11.8,10.4-11.8A11.6,11.6,0,0,1,180.5,6.1Z"/><path class="cls-1" d="M213.5,41.9c0,12.7-8,22.6-19.3,22.6s-19.3-9.4-19.3-22.6c0-12.7,8-22.6,19.3-22.6S213.5,29.2,213.5,41.9ZM194.2,24.5c-8.5,0-13.7,7.1-13.7,17.4s5.2,17.4,13.7,17.4,13.7-7.1,13.7-17.4S202.6,24.5,194.2,24.5Z"/><path class="cls-1" d="M220.5,22.1v41h5.2V25.4a25,25,0,0,1,8-1.4,32.46,32.46,0,0,1,7.5.9l.9-4.7c-3.3-.9-4.7-1.4-7.5-1.4C228.1,19.3,224.8,20.7,220.5,22.1Z"/><path class="cls-1" d="M250.7,25.4V63.1h-5.2v-41c4.7-1.4,7.1-2.8,16-2.8,4.7,0,9,1.4,11.8,4.7a23.19,23.19,0,0,1,14.1-4.7c9.4,0,15.6,3.8,15.6,18.8V63.5h-5.2V40.4c0-9-.9-16-10.4-16a18.28,18.28,0,0,0-11.8,3.8A35.85,35.85,0,0,1,277,38.6v25h-5.2V40.5c0-9-.5-16-10.8-16C256.8,24.5,254,24.5,250.7,25.4Z"/><path class="cls-1" d="M682.4,177.6V147.9H646.1V105.5l-34.9,9V148H592.4v29.7h18.8v79.2c0,19.3,3.8,33,12.3,41.5,7.5,7.5,15.6,12.3,30.2,12.3,12.7,0,22.6-1.4,28.3-3.8V278.2a66.94,66.94,0,0,1-16,1.9c-15.1,0-20.3-9.4-20.3-27.3V177.9h36.7Z"/><path class="cls-1" d="M315.3,272.3a54.76,54.76,0,0,1-33.5,11.3c-18.8,0-31.6-9.4-31.6-28.3V147.9H214.9V256.3c0,23.6,11.3,53.3,54.2,53.3A86.89,86.89,0,0,0,317.6,295l2.8,12.3h29.7V147.9H315.2V272.3Z"/><path class="cls-1" d="M82.5,201.2c0-48.1,25-82.9,71.6-82.9,17.4,0,32.5,4.7,48.5,10.8v-32c-17.4-5.7-35.3-9.4-53.7-9.4-62.2,0-106,47.1-106,116.4C42.4,265.8,78.2,314.4,148,314.4c14.6,0,42.4-2.4,56.5-10.4V271.5c-24,12.3-37.7,12.3-50.9,12.3C113.6,283.2,82.5,255.4,82.5,201.2Z"/><path class="cls-1" d="M459.9,146.5c-22.6,0-38.2,9-48.1,22.1V87.1l-34.9,9.4V307.2h30.2l1.9-19.3c11.3,16.5,27.3,23.1,46.7,23.1,35.3,0,66.9-28.7,66.9-82C522.6,183.3,498.1,146.5,459.9,146.5ZM447.7,280.8a36.08,36.08,0,0,1-34.9-26.4,49.86,49.86,0,0,1-.9-9V212.9a32.38,32.38,0,0,1,1.4-9.9c4.7-16.5,18.8-27.3,34.9-27.3,28.7,0,39.1,25.4,39.1,53.7C487.3,260.1,472.2,280.8,447.7,280.8Z"/><rect class="cls-1" x="540.5" y="147.9" width="35.3" height="159.3"/><path class="cls-1" d="M557.9,87.6c-13.2,0-22.1,9.4-22.1,20.7s9,20.7,22.1,20.7c13.7,0,22.6-9.4,22.6-20.7C580.1,97,571.6,87.6,557.9,87.6Z"/><path class="cls-1" d="M681.9,115.8h-3V98.2h-5.4v-3h13.9v2.9H682v17.7Z"/><path class="cls-1" d="M698.1,115.8l-5.4-17.1h-.1c.1,2.5.2,4.9.2,7.2v10h-2.7V95.2h4.3l5.1,16.3h.1l5.3-16.3h4.3v20.5h-2.9V105.6c0-1,0-2.3.1-4s.1-2.6.1-3h-.1l-5.6,17.1h-2.7Z"/></g></g></svg>